<svg viewBox="0 0 1024 1024" xmlns="http://www.w3.org/2000/svg"><path d="M382.23 829.54v72.18h240.22v-48.65c99.17-58.43 166.99-164.17 172.66-286.19H211.55c12.72 112 77.95 208.03 170.68 262.66z" fill="#81C8BE"></path><path d="M628.93 908.19H375.75v-74.97c-94.51-57.04-158.2-156.07-170.65-265.61l-0.81-7.21h597.6l-0.32 6.78C796 686.91 731.55 794.87 628.92 856.75v51.44z m-240.22-12.95h227.27v-45.87l3.19-1.87c98.74-58.17 161.58-160.28 169.09-274.14H218.88c14.06 103.89 75.95 197.17 166.64 250.61l3.19 1.87v69.4z" fill="#81C8BE"></path><path d="M757.89 789.12c-11.45 0-23.32-0.58-35.6-1.75l6.12-64.48c57.8 5.55 101.68-4.48 130.41-29.65 33.69-29.53 36.16-71.32 36.17-71.74 0.01-14.61-3.12-25.73-9.35-31.94-13-12.98-46.1-12.86-72.57-12.72-6.16 0.04-12.21 0.04-17.97-0.05l1.14-64.76c5.31 0.09 10.88 0.08 16.56 0.05 38.59-0.2 86.53-0.35 118.6 31.65 18.87 18.85 28.41 45.44 28.33 79.05-0.13 3.95-3.21 70.97-58.23 119.17-35.79 31.36-84 47.17-143.61 47.17zM388.87 74.07S554.3 53.12 559.7 196.35c0 0 11.75 53.95-79.12 104.29 0 0-55.74 22.89-43.16 76.22 0 0-154.64-63.63-27.87-173.32 0 0 53.05-27.88 22.48-86.77-0.01 0.01-14.39-24.71-43.16-42.7z" fill="#1E4D48"></path><path d="M493.59 152.97c13.24 16.09 13.95 35.06 14.34 45.33l0.17 4.59 0.17 0.77c-0.78 4.71-6.69 25.55-50.64 50.46-16.92 7.51-33.19 19.19-46.13 34.24-0.74-7.76 6.43-22.68 28.52-42.6 26.57-16.54 53.21-49.45 53.57-92.79M410.52 73c-13.17 0-21.65 1.07-21.65 1.07 28.77 17.98 43.16 42.7 43.16 42.7 30.57 58.89-22.48 86.77-22.48 86.77-126.77 109.69 27.87 173.32 27.87 173.32-12.59-53.33 43.16-76.22 43.16-76.22 90.87-50.35 79.12-104.29 79.12-104.29C555.52 85.54 455.56 73 410.52 73zM656.25 951.69H235.58v-86.6c-107.29-70.56-173.2-191.75-173.2-320.67v-6.56c0-12.57 0.42-76.23 0.42-76.23l0.2-32.17h765.88l0.58 114.79c0 129.07-65.92 250.27-173.22 320.85v86.59z m-355.92-64.76h291.16v-58.31l15.95-9.4c97-57.14 157.27-162.44 157.27-274.81l-0.25-50.2H127.35c-0.1 17.67-0.22 37.26-0.22 43.64v6.56c0 112.35 60.26 217.66 157.25 274.81l15.95 9.4v58.31z" fill="#1E4D48"></path></svg>