<svg viewBox="0 0 1024 1024" xmlns="http://www.w3.org/2000/svg"><path d="M208.979592 1024h606.040816c115.461224 0 208.979592-93.518367 208.979592-208.979592V208.979592C1024 93.518367 930.481633 0 815.020408 0H208.979592C93.518367 0 0 93.518367 0 208.979592v606.040816c0 115.461224 93.518367 208.979592 208.979592 208.979592z" fill="#FEFEFE"></path><path d="M512 73.142857C269.583673 73.142857 73.142857 269.583673 73.142857 512s196.440816 438.857143 438.857143 438.857143 438.857143-196.440816 438.857143-438.857143S754.416327 73.142857 512 73.142857z" fill="#1573C7"></path><path d="M741.877551 572.604082L378.044082 177.632653l92.264489 273.763265H282.122449L645.955918 846.367347l-92.264489-273.763265H741.877551z" fill="#FFFFFF"></path></svg>