<svg viewBox="0 0 1024 1024" xmlns="http://www.w3.org/2000/svg"><path d="M940 268l2.4-1.6c-4.8-8.8-12-16.8-19.2-20.8L536.8 23.2c-6.4-4-15.2-5.6-24.8-5.6-9.6 0-18.4 2.4-24.8 5.6l-384 223.2c-13.6 8-23.2 28-23.2 43.2v445.6c0 8.8 1.6 18.4 7.2 27.2l-1.6 0.8c4 6.4 9.6 12 15.2 15.2l385.6 223.2c6.4 4 15.2 5.6 24.8 5.6 9.6 0 18.4-2.4 24.8-5.6l384-223.2c13.6-8 23.2-28 23.2-43.2V288.8c0.8-6.4 0-13.6-3.2-20.8z m-428 560c-174.4 0-316-141.6-316-316S337.6 196 512 196c117.6 0 220 64.8 274.4 160l-104 60C648.8 356 584.8 316 512 316c-108 0-196 88-196 196s88 196 196 196c72.8 0 136.8-40 170.4-99.2l103.2 60.8c-54.4 94.4-156.8 158.4-273.6 158.4zM920 496h-25.6l-7.2 32h32.8v40h-40l-9.6 48h-39.2l9.6-48h-30.4l-9.6 48h-38.4l9.6-48H752v-40h28l7.2-32H752v-40h42.4l9.6-48h39.2l-9.6 48h30.4l9.6-48h38.4l-9.6 48h17.6v40z m-101.6 32h30.4l7.2-32h-30.4z" fill="#68217A"></path></svg>